<svg width="28" height="36" viewBox="0 0 28 36" fill="none" xmlns="http://www.w3.org/2000/svg">
<path d="M14 27L11.9698 25.0578C4.76043 18.1867 0.000370131 13.6551 0.000370131 8.0933C-0.00962022 7.0276 0.182722 5.97052 0.566142 4.9839C0.949561 3.99728 1.51636 3.10094 2.23336 2.34734C2.95036 1.59375 3.80317 0.998025 4.74188 0.595036C5.68059 0.192048 6.68635 -0.0101112 7.70029 0.000389022C8.89843 0.0100145 10.0807 0.289453 11.1674 0.819874C12.2541 1.3503 13.22 2.11937 14 3.07529C14.78 2.11937 15.7459 1.3503 16.8326 0.819874C17.9193 0.289453 19.1016 0.0100145 20.2997 0.000389022C21.3137 -0.0101112 22.3194 0.192048 23.2581 0.595036C24.1968 0.998025 25.0496 1.59375 25.7666 2.34734C26.4836 3.10094 27.0504 3.99728 27.4339 4.9839C27.8173 5.97052 28.0096 7.0276 27.9996 8.0933C27.9996 13.6551 23.2396 18.1867 16.0302 25.0728L14 27Z" fill="#3E8CAB"/>
<path d="M14 27L11.9698 25.0578C4.76043 18.1867 0.000370131 13.6551 0.000370131 8.0933C-0.00962022 7.0276 0.182722 5.97052 0.566142 4.9839C0.949561 3.99728 1.51636 3.10094 2.23336 2.34734C2.95036 1.59375 3.80317 0.998025 4.74188 0.595036C5.68059 0.192048 6.68635 -0.0101112 7.70029 0.000389022C8.89843 0.0100145 10.0807 0.289453 11.1674 0.819874C12.2541 1.3503 13.22 2.11937 14 3.07529C14.78 2.11937 15.7459 1.3503 16.8326 0.819874C17.9193 0.289453 19.1016 0.0100145 20.2997 0.000389022C21.3137 -0.0101112 22.3194 0.192048 23.2581 0.595036C24.1968 0.998025 25.0496 1.59375 25.7666 2.34734C26.4836 3.10094 27.0504 3.99728 27.4339 4.9839C27.8173 5.97052 28.0096 7.0276 27.9996 8.0933C27.9996 13.6551 23.2396 18.1867 16.0302 25.0728L14 27Z" fill="#B2B5BC"/>
</svg>
