<svg width="25" height="27" viewBox="0 0 25 27" fill="none" xmlns="http://www.w3.org/2000/svg">
<path d="M14.7617 16.0977H9.39386V25.4913H14.7617V16.0977Z" fill="#B2B5BC"/>
<path d="M0.778379 10.9715L11.1248 0.396946C11.2496 0.271167 11.398 0.171334 11.5615 0.103205C11.725 0.0350762 11.9004 0 12.0776 0C12.2547 0 12.4301 0.0350762 12.5937 0.103205C12.7572 0.171334 12.9056 0.271167 13.0304 0.396946L23.3768 10.9849C23.6271 11.2373 23.8249 11.5369 23.9585 11.8663C24.0921 12.1957 24.1589 12.5484 24.1551 12.9039V24.1494C24.1562 24.8364 23.8937 25.4976 23.4219 25.9969C22.9501 26.4962 22.3048 26.7955 21.6188 26.8333H17.4454V14.7558C17.4454 14.3999 17.304 14.0586 17.0523 13.8069C16.8007 13.5552 16.4593 13.4138 16.1034 13.4138H8.05174C7.69583 13.4138 7.3545 13.5552 7.10284 13.8069C6.85117 14.0586 6.70979 14.3999 6.70979 14.7558V26.8333H2.53633C1.85041 26.7955 1.20509 26.4962 0.733255 25.9969C0.261425 25.4976 -0.000991821 24.8364 4.95911e-05 24.1494V12.9039C-0.00101471 12.1832 0.278076 11.4903 0.778379 10.9715Z" fill="#B2B5BC"/>
</svg>
