<svg width="216" height="38" viewBox="0 0 216 38" fill="none" xmlns="http://www.w3.org/2000/svg">
    <defs>
        <linearGradient id="paint0_linear_1_550" x1="65.0384" y1="8.03847" x2="8.76918" y2="38" gradientUnits="userSpaceOnUse">
            <stop stop-color="#E39845"/>
            <stop offset="1" stop-color="#E28B2A"/>
        </linearGradient>
    </defs>
    <path d="M2.56319 0C1.85599 0 1.26113 0.249866 0.773498 0.752147C0.283312 1.25188 0.0407715 1.85615 0.0407715 2.55985C0.0407715 3.26355 0.285865 3.86782 0.773498 4.36755C1.26113 4.86983 1.85855 5.1197 2.56319 5.1197C3.26783 5.1197 3.8295 4.86983 4.33246 4.36755C4.83286 3.86782 5.08561 3.26355 5.08561 2.55985C5.08561 1.85615 4.83541 1.25443 4.33246 0.752147C3.8295 0.249866 3.23975 0 2.56319 0Z" fill="white"/>
<path d="M2.5223 7.59546C1.84318 7.59546 1.24832 7.84023 0.732605 8.32721C0.244971 8.81419 -0.00012207 9.41081 -0.00012207 10.1145V35.379C-0.00012207 36.0827 0.244971 36.6793 0.732605 37.1663C1.24832 37.6813 1.84318 37.9389 2.5223 37.9389C3.20141 37.9389 3.82435 37.6813 4.31199 37.1663C4.79962 36.6793 5.04471 36.0827 5.04471 35.379V10.1145C5.04471 9.41081 4.79962 8.81419 4.31199 8.32721C3.82435 7.84023 3.22694 7.59546 2.5223 7.59546Z" fill="white"/>
<path d="M82.5991 7.59532C78.4223 7.59532 74.8429 9.07157 71.8609 12.0215C68.9045 14.974 67.4288 18.5486 67.4288 22.7454C67.4288 26.9421 68.9071 30.5167 71.8609 33.4692C74.8429 36.4472 78.5168 37.9362 82.8825 37.9362C84.9964 37.9362 86.9776 37.6379 88.8209 37.0412C90.6642 36.4191 92.3594 35.5523 93.904 34.4432C94.4197 34.0097 94.7184 33.4411 94.8001 32.7374C94.8538 32.0337 94.6495 31.4116 94.19 30.8685C93.7559 30.3535 93.1994 30.0552 92.5228 29.9736C91.8182 29.9201 91.1927 30.1087 90.6514 30.5422C89.5383 31.2994 88.3588 31.868 87.1129 32.2479C85.8389 32.6533 84.4296 32.8573 82.8825 32.8573C79.9005 32.8573 77.4189 31.868 75.4403 29.892C74.1383 28.5917 73.2575 27.0619 72.7954 25.3027H95.2878C95.9643 25.3027 96.549 25.0451 97.0366 24.5301C97.5523 24.0431 97.8102 23.4465 97.8102 22.7428C97.8102 18.5461 96.332 14.9715 93.3781 12.019C90.3961 9.06902 86.8014 7.59277 82.5991 7.59277V7.59532ZM72.7979 20.2263C73.26 18.439 74.1408 16.8965 75.4429 15.5961C77.4215 13.6201 79.8086 12.6309 82.6016 12.6309C85.3947 12.6309 87.8073 13.6201 89.7604 15.5961C91.088 16.8965 91.9841 18.439 92.4437 20.2263H72.7979Z" fill="white"/>
<path d="M121.523 21.3661C119.896 20.7695 117.129 20.4457 113.225 20.3922C110.134 20.3922 107.925 20.1091 106.595 19.538C105.321 19.023 104.67 18.0745 104.642 16.6952C104.642 15.558 105.359 14.5968 106.797 13.8115C108.477 12.9191 110.593 12.4704 113.141 12.4704H113.182V12.4296C114.997 12.4576 116.68 12.7407 118.224 13.2812C119.687 13.8243 120.936 14.5815 121.964 15.5555C122.452 16.017 123.037 16.2464 123.713 16.2464C124.364 16.2184 124.918 15.9634 125.38 15.4739C125.843 14.9869 126.072 14.4183 126.072 13.7682C126.044 13.0925 125.789 12.5239 125.299 12.0624C123.78 10.5989 121.964 9.48985 119.848 8.7326C117.788 8.00085 115.564 7.62351 113.177 7.59546C109.814 7.59546 106.914 8.24562 104.473 9.54594C101.382 11.2517 99.8218 13.6356 99.7963 16.6952C99.7963 20.2417 101.451 22.6945 104.759 24.0458C106.656 24.8056 109.477 25.1957 113.22 25.2237C116.529 25.2518 118.725 25.4813 119.81 25.9147C121.002 26.3481 121.599 27.3221 121.599 28.8392C121.599 29.8947 121.002 30.7896 119.81 31.5188C118.155 32.5489 115.988 33.0767 113.302 33.1022C111.459 33.1022 109.735 32.8192 108.137 32.248C106.536 31.6795 105.155 30.8534 103.988 29.7698C103.526 29.3363 102.957 29.1196 102.28 29.1196C101.601 29.1732 101.047 29.4434 100.613 29.933C100.151 30.4199 99.9341 30.9885 99.9622 31.6387C99.9903 32.3169 100.246 32.8855 100.736 33.3444C102.362 34.8334 104.274 35.9833 106.47 36.7966C108.612 37.5564 110.889 37.9338 113.302 37.9338C116.935 37.8802 119.958 37.1077 122.373 35.6187C125.11 33.941 126.481 31.6795 126.481 28.8366C126.481 25.0988 124.826 22.6078 121.518 21.3636L121.523 21.3661Z" fill="white"/>
<path d="M152.882 28.3113C152.285 27.9595 151.649 27.8651 150.97 28.0283C150.291 28.1915 149.778 28.5561 149.425 29.1247C148.692 30.2899 147.717 31.2103 146.497 31.8859C145.33 32.5641 144.056 32.9007 142.672 32.9007C140.502 32.9007 138.631 32.1154 137.061 30.5448C135.516 29.0023 134.743 27.1461 134.743 24.9789V12.6335H150.523C151.228 12.6335 151.825 12.3888 152.313 11.9018C152.8 11.4148 153.045 10.8182 153.045 10.1145C153.045 9.41076 152.8 8.81415 152.313 8.32716C151.825 7.81213 151.228 7.55462 150.523 7.55462H134.743V2.51906C134.743 1.8434 134.498 1.24678 134.01 0.73175C133.522 0.244767 132.925 0 132.22 0C131.516 0 130.946 0.244767 130.43 0.73175C129.943 1.24678 129.698 1.8434 129.698 2.51906V24.9789C129.698 28.5535 130.972 31.6004 133.522 34.1169C136.045 36.6614 139.093 37.9363 142.672 37.9363C144.896 37.9363 146.997 37.383 148.976 36.2713C150.954 35.1877 152.527 33.6987 153.694 31.8044C154.074 31.2077 154.182 30.5729 154.018 29.8947C153.855 29.219 153.474 28.6887 152.879 28.3113H152.882Z" fill="white"/>
<path d="M170.776 7.59546C166.6 7.59546 163.02 9.07171 160.038 12.0217C157.082 14.9742 155.606 18.5488 155.606 22.7455C155.606 26.9422 157.084 30.5168 160.038 33.4693C163.02 36.4473 166.6 37.9363 170.776 37.9363C174.953 37.9363 178.571 36.4473 181.555 33.4693C184.512 30.5168 185.987 26.9422 185.987 22.7455C185.987 18.5488 184.509 14.9742 181.555 12.0217C178.573 9.07171 174.979 7.59546 170.776 7.59546ZM177.935 29.8947C175.982 31.8707 173.597 32.86 170.776 32.86C167.955 32.86 165.596 31.8707 163.618 29.8947C161.639 27.9187 160.648 25.5348 160.648 22.7455C160.648 19.9562 161.639 17.5748 163.618 15.5963C165.596 13.6203 167.983 12.631 170.776 12.631C173.569 12.631 175.982 13.6203 177.935 15.5963C179.942 17.5722 180.945 19.9562 180.945 22.7455C180.945 25.5348 179.942 27.9187 177.935 29.8947Z" fill="white"/>
<path d="M211.978 11.5347C209.348 8.90853 206.175 7.59546 202.46 7.59546C198.745 7.59546 195.572 8.90853 192.942 11.5347C190.312 14.1608 188.998 17.33 188.998 21.0398V35.4173C188.998 36.0955 189.243 36.6768 189.73 37.1638C190.246 37.6788 190.841 37.9363 191.52 37.9363C192.199 37.9363 192.835 37.6788 193.351 37.1638C193.81 36.6768 194.042 36.0955 194.042 35.4173V21.0398C194.042 18.7119 194.87 16.7334 196.524 15.1093C198.15 13.4571 200.129 12.631 202.462 12.631C204.796 12.631 206.774 13.4571 208.401 15.1093C210.055 16.7334 210.882 18.7119 210.882 21.0398C210.882 21.7154 211.112 22.312 211.574 22.8271C212.062 23.3141 212.672 23.5588 213.405 23.5588C214.081 23.5588 214.666 23.3166 215.154 22.8271C215.669 22.312 215.927 21.718 215.927 21.0398C215.927 17.33 214.612 14.1608 211.983 11.5347H211.978Z" fill="white"/>
<path d="M63.8928 10.5862C63.7601 8.651 61.8197 7.37107 59.9841 8.00593L49.0979 11.7692C47.5584 12.3021 46.7414 13.9798 47.275 15.5172C47.8086 17.0546 49.4885 17.8705 51.028 17.3377L53.4049 16.5167L42.5518 30.9349L28.9798 13.5871C28.1858 12.5724 26.9986 12.0242 25.7068 12.0242C24.42 12.0446 23.2431 12.6488 22.4823 13.6866L9.15021 31.8401C8.18771 33.1531 8.4711 34.9965 9.78337 35.9578C11.0982 36.919 12.944 36.636 13.9066 35.3255L25.814 19.1122L39.3707 36.4371C40.1494 37.4315 41.3187 38 42.5825 38H42.6233C43.882 38 45.0666 37.4085 45.8223 36.4065L58.5952 19.436L58.7918 22.2789C58.9041 23.903 60.3134 25.1268 61.9372 25.0147C63.5635 24.9025 64.7889 23.4951 64.6766 21.8735L63.8954 10.5913L63.8928 10.5862Z" fill="url(#paint0_linear_1_550)"/>

</svg>
