<?xml version="1.0" encoding="UTF-8"?>
<!-- Generator: visioncortex VTracer 0.6.3 -->
<svg version="1.1" xmlns="http://www.w3.org/2000/svg" width="1280" height="414">
<path d="M0 0 C0.56 0.53 1.12 1.05 1.7 1.6 C2.27 2.12 2.85 2.65 3.44 3.19 C6.64 6.6 6.25 10.82 6.57 15.26 C6.64 16.13 6.7 17 6.77 17.9 C6.91 19.75 7.04 21.6 7.18 23.45 C7.38 26.23 7.59 29 7.8 31.78 C9.54 55.07 9.54 55.07 8.82 63.66 C8.16 64.32 7.5 64.98 6.82 65.66 C6.35 66.16 5.87 66.65 5.38 67.16 C2.54 69.88 0.97 70.65 -2.99 71.04 C-7.37 70.91 -9.83 69.55 -13.18 66.66 C-17.32 62.08 -17.56 58.55 -17.32 52.64 C-17.27 51.98 -17.23 51.33 -17.18 50.66 C-17.84 50.66 -18.5 50.66 -19.18 50.66 C-19.51 51.32 -19.84 51.98 -20.18 52.66 C-21.17 53.65 -21.17 53.65 -22.18 54.66 C-22.51 55.32 -22.84 55.98 -23.18 56.66 C-24.17 57.65 -24.17 57.65 -25.18 58.66 C-25.51 59.32 -25.84 59.98 -26.18 60.66 C-26.84 61.32 -27.5 61.98 -28.18 62.66 C-28.51 63.32 -28.84 63.98 -29.18 64.66 C-29.84 65.32 -30.5 65.98 -31.18 66.66 C-31.51 67.32 -31.84 67.98 -32.18 68.66 C-32.84 69.32 -33.5 69.98 -34.18 70.66 C-34.51 71.32 -34.84 71.98 -35.18 72.66 C-35.84 73.32 -36.5 73.98 -37.18 74.66 C-37.51 75.32 -37.84 75.98 -38.18 76.66 C-38.84 77.32 -39.5 77.98 -40.18 78.66 C-40.51 79.32 -40.84 79.98 -41.18 80.66 C-41.84 81.32 -42.5 81.98 -43.18 82.66 C-43.51 83.32 -43.84 83.98 -44.18 84.66 C-45.18 85.66 -46.18 86.66 -47.18 87.66 C-47.51 88.32 -47.84 88.98 -48.18 89.66 C-48.84 90.32 -49.5 90.98 -50.18 91.66 C-50.51 92.32 -50.84 92.98 -51.18 93.66 C-51.84 94.32 -52.5 94.98 -53.18 95.66 C-53.51 96.32 -53.84 96.98 -54.18 97.66 C-54.84 98.32 -55.5 98.98 -56.18 99.66 C-56.51 100.32 -56.84 100.98 -57.18 101.66 C-57.84 102.32 -58.5 102.98 -59.18 103.66 C-59.51 104.32 -59.84 104.98 -60.18 105.66 C-60.84 106.32 -61.5 106.98 -62.18 107.66 C-62.51 108.32 -62.84 108.98 -63.18 109.66 C-63.84 110.32 -64.5 110.98 -65.18 111.66 C-65.51 112.32 -65.84 112.98 -66.18 113.66 C-66.84 114.32 -67.5 114.98 -68.18 115.66 C-68.51 116.32 -68.84 116.98 -69.18 117.66 C-70.49 119.01 -71.83 120.35 -73.18 121.66 C-73.84 122.32 -74.5 122.98 -75.18 123.66 C-80.75 125.52 -86.16 125.38 -91.68 123.41 C-97.21 119.72 -101.14 113.86 -105.18 108.66 C-105.59 108.13 -106 107.6 -106.43 107.06 C-108.5 104.39 -110.57 101.7 -112.62 99.01 C-115.25 95.55 -117.93 92.14 -120.62 88.72 C-121.08 88.14 -121.54 87.55 -122.01 86.95 C-123.4 85.19 -124.79 83.42 -126.18 81.66 C-127.51 79.98 -128.83 78.29 -130.16 76.61 C-131.05 75.48 -131.94 74.35 -132.83 73.22 C-135.53 69.79 -138.2 66.33 -140.84 62.85 C-141.78 61.62 -141.78 61.62 -142.74 60.37 C-143.97 58.76 -145.19 57.14 -146.41 55.52 C-146.97 54.79 -147.53 54.06 -148.11 53.3 C-148.61 52.65 -149.1 51.99 -149.61 51.32 C-151.33 49.5 -152.9 48.63 -155.18 47.66 C-155.47 48.28 -155.76 48.9 -156.05 49.54 C-157.18 51.66 -157.18 51.66 -159.18 53.66 C-159.67 54.65 -159.67 54.65 -160.18 55.66 C-161.17 56.65 -161.17 56.65 -162.18 57.66 C-162.85 59 -163.5 60.36 -164.12 61.72 C-165.18 63.66 -165.18 63.66 -167.18 64.66 C-167.51 65.32 -167.84 65.98 -168.18 66.66 C-168.84 67.32 -169.5 67.98 -170.18 68.66 C-170.51 69.32 -170.84 69.98 -171.18 70.66 C-171.84 71.32 -172.5 71.98 -173.18 72.66 C-173.85 74 -174.5 75.36 -175.12 76.72 C-176.18 78.66 -176.18 78.66 -178.18 79.66 C-178.51 80.32 -178.84 80.98 -179.18 81.66 C-179.84 82.32 -180.5 82.98 -181.18 83.66 C-181.51 84.32 -181.84 84.98 -182.18 85.66 C-182.84 86.32 -183.5 86.98 -184.18 87.66 C-184.51 88.32 -184.84 88.98 -185.18 89.66 C-185.84 90.32 -186.5 90.98 -187.18 91.66 C-187.83 92.96 -188.46 94.27 -189.05 95.6 C-190.21 97.72 -191.41 99.04 -193.18 100.66 C-195.23 102.5 -195.23 102.5 -196.18 104.66 C-197.17 105.65 -197.17 105.65 -198.18 106.66 C-198.51 107.32 -198.84 107.98 -199.18 108.66 C-201.94 112.8 -205.04 115.9 -209.18 118.66 C-214.2 119.12 -217.2 118.8 -221.18 115.66 C-224.24 112.67 -225.94 110.66 -226.93 106.47 C-225.77 100.6 -222.63 96.48 -219.18 91.66 C-218.58 90.82 -218.58 90.82 -217.96 89.96 C-212.3 82.06 -206.43 74.32 -200.58 66.56 C-197.45 62.39 -194.38 58.17 -191.37 53.91 C-186.53 47.06 -181.49 40.37 -176.44 33.67 C-175.83 32.87 -175.23 32.06 -174.6 31.23 C-174.01 30.45 -173.43 29.68 -172.83 28.88 C-171.32 26.85 -169.87 24.79 -168.43 22.71 C-165.1 18.19 -162 16.14 -156.57 15.21 C-150.32 14.82 -146.57 15.89 -141.84 20 C-139.73 22.11 -137.83 24.18 -136.18 26.66 C-136.18 27.32 -136.18 27.98 -136.18 28.66 C-135.52 28.66 -134.86 28.66 -134.18 28.66 C-132.76 30.38 -131.41 32.16 -130.12 33.97 C-129.4 34.96 -128.69 35.94 -127.96 36.96 C-126.18 39.66 -126.18 39.66 -125.18 42.66 C-124.52 42.66 -123.86 42.66 -123.18 42.66 C-121.89 44.12 -121.89 44.12 -120.55 46.04 C-120.11 46.66 -119.66 47.29 -119.2 47.93 C-118.18 49.66 -118.18 49.66 -118.18 51.66 C-117.52 51.66 -116.86 51.66 -116.18 51.66 C-115.19 54.14 -115.19 54.14 -114.18 56.66 C-113.52 56.66 -112.86 56.66 -112.18 56.66 C-110.89 58.12 -110.89 58.12 -109.55 60.04 C-109.11 60.66 -108.66 61.29 -108.2 61.93 C-107.18 63.66 -107.18 63.66 -107.18 65.66 C-106.52 65.66 -105.86 65.66 -105.18 65.66 C-103.76 67.38 -102.41 69.16 -101.12 70.97 C-100.4 71.96 -99.69 72.94 -98.96 73.96 C-97.18 76.66 -97.18 76.66 -96.18 79.66 C-95.52 79.66 -94.86 79.66 -94.18 79.66 C-92.89 81.12 -92.89 81.12 -91.55 83.04 C-91.11 83.66 -90.66 84.29 -90.2 84.93 C-89.18 86.66 -89.18 86.66 -89.18 88.66 C-88.52 88.66 -87.86 88.66 -87.18 88.66 C-86.19 90.15 -86.19 90.15 -85.18 91.66 C-84.19 91.99 -83.2 92.32 -82.18 92.66 C-81.96 92.15 -81.74 91.64 -81.51 91.11 C-79.63 87.64 -77.25 84.61 -74.87 81.47 C-74.34 80.77 -73.81 80.07 -73.26 79.35 C-69.42 74.27 -65.55 69.22 -61.68 64.16 C-60.06 62.05 -58.45 59.93 -56.83 57.82 C-55.7 56.34 -54.57 54.86 -53.44 53.39 C-51.74 51.17 -50.05 48.95 -48.37 46.72 C-47.58 45.7 -47.58 45.7 -46.79 44.66 C-44.1 41.51 -44.1 41.51 -43.18 37.66 C-44.17 37.99 -45.16 38.32 -46.18 38.66 C-50.76 39.24 -55.21 39.65 -59.42 37.53 C-62.44 35.13 -63.95 33.35 -65.18 29.66 C-65.18 23.51 -64.48 20.96 -60.18 16.66 C-59.85 16 -59.52 15.34 -59.18 14.66 C-57.21 13.77 -57.21 13.77 -54.59 12.86 C-53.61 12.51 -52.63 12.17 -51.62 11.82 C-50.56 11.45 -49.49 11.09 -48.39 10.71 C-47.3 10.33 -46.21 9.96 -45.08 9.57 C-42.76 8.77 -40.45 7.98 -38.13 7.19 C-34.58 5.98 -31.05 4.75 -27.52 3.52 C-25.27 2.75 -23.02 1.98 -20.77 1.21 C-19.18 0.65 -19.18 0.65 -17.57 0.09 C-11.26 -2.03 -6.04 -3.71 0 0 Z M-41.18 36.66 C-40.85 37.32 -40.52 37.98 -40.18 38.66 C-39.85 38 -39.52 37.34 -39.18 36.66 C-39.84 36.66 -40.5 36.66 -41.18 36.66 Z " fill="#0D8487" transform="translate(461.1796875,161.33984375)"/>
<path d="M0 0 C13.14 9.71 22.35 22.5 26.62 38.3 C27.18 42.3 27.1 46.27 27.06 50.31 C27.06 51.15 27.05 51.98 27.05 52.85 C27.04 54.9 27.02 56.95 27 59 C26.38 59.27 25.76 59.54 25.12 59.81 C22.7 60.96 22.7 60.96 21 64 C17.89 64.29 14.98 64.38 11.87 64.34 C10.92 64.34 9.98 64.34 9 64.34 C5.86 64.34 2.72 64.32 -0.41 64.29 C-2.59 64.29 -4.76 64.28 -6.93 64.28 C-12.65 64.27 -18.38 64.24 -24.1 64.21 C-29.94 64.18 -35.78 64.16 -41.62 64.15 C-53.08 64.11 -64.54 64.06 -76 64 C-75.4 65.59 -74.79 67.17 -74.17 68.75 C-73.83 69.63 -73.49 70.51 -73.14 71.42 C-71.55 75.02 -69.36 77.86 -67 81 C-67 81.66 -67 82.32 -67 83 C-66.2 83.37 -66.2 83.37 -65.38 83.75 C-63 85 -63 85 -60.24 86.94 C-48.85 94.18 -34.53 94.4 -21.54 92.49 C-14.14 90.84 -6.93 88 -0.87 83.37 C1 82 1 82 3.38 81.56 C7.76 82.29 10.64 84.78 13.88 87.69 C15.73 91.5 16.04 94.88 15 99 C8.64 108.26 -5.77 113.25 -16.27 115.51 C-20.19 116.21 -24.02 116.78 -28 117 C-29.43 117.08 -29.43 117.08 -30.88 117.16 C-47.8 117.64 -63.44 113.98 -76.38 102.56 C-77.93 101.05 -79.47 99.53 -81 98 C-81.7 97.39 -82.39 96.77 -83.11 96.14 C-93.18 87.01 -99.77 73.7 -100.47 60.12 C-100.5 58.04 -100.51 55.96 -100.5 53.88 C-100.49 52.78 -100.49 51.68 -100.48 50.56 C-100.15 35.44 -95.94 22.85 -85 12 C-84.04 10.73 -84.04 10.73 -83.06 9.44 C-81.04 7.05 -79.73 6.32 -77 5 C-76.67 4.01 -76.34 3.02 -76 2 C-73.91 0.55 -71.9 -0.71 -69.69 -1.94 C-69.06 -2.29 -68.44 -2.64 -67.79 -3.01 C-45.65 -15.11 -20.93 -13.83 0 0 Z M-56.64 16.78 C-59 18 -59 18 -61.56 18.94 C-64.24 20.11 -65.74 21.4 -67.75 23.5 C-68.34 24.11 -68.94 24.72 -69.55 25.34 C-71.52 27.59 -72.43 29.99 -73.5 32.75 C-73.76 33.4 -74.02 34.06 -74.28 34.73 C-75.24 37.58 -75.24 37.58 -76 43 C-49.27 43 -22.54 43 5 43 C4.5 42.01 4.5 42.01 4 41 C4 40.01 4 39.02 4 38 C3.34 38 2.68 38 2 38 C1.86 37.44 1.73 36.89 1.59 36.31 C-0.83 27.72 -5.4 22.4 -12.94 17.69 C-27.67 9.45 -41.73 8.79 -56.64 16.78 Z " fill="#0D8487" transform="translate(581,169)"/>
<path d="M0 0 C7.02 5.7 7.02 5.7 8.47 10.29 C8.72 14.63 7.98 17.03 5.68 20.73 C2.22 22.86 0.17 23.51 -3.86 23.3 C-8.15 22.12 -11.24 19.36 -14.71 16.64 C-25.69 8.27 -40.6 6.8 -53.96 8.09 C-61.05 9.16 -67.04 11.29 -73.38 14.61 C-74.49 14.86 -74.49 14.86 -75.63 15.11 C-77.79 15.52 -77.79 15.52 -79.38 18.61 C-80.47 22.92 -80.61 26.66 -79.57 30.98 C-75.03 36.43 -67.09 36.84 -60.38 37.61 C-56.26 37.82 -52.13 37.93 -48 38.05 C-9.77 39.38 -9.77 39.38 3.93 53.92 C10.72 62.49 10.62 73.14 9.62 83.61 C8.95 86.74 8.16 88.77 6.62 91.61 C5.63 92.1 5.63 92.1 4.62 92.61 C4.29 93.27 3.96 93.93 3.62 94.61 C2.61 95.43 1.6 96.26 0.56 97.11 C-0.41 97.93 -1.38 98.76 -2.38 99.61 C-2.38 100.27 -2.38 100.93 -2.38 101.61 C-17.93 113.65 -39.47 115.19 -58.32 112.86 C-72.75 110.57 -85.01 105.82 -96 96.11 C-96.79 95.43 -96.79 95.43 -97.58 94.74 C-100.09 92.42 -101.34 90.76 -102.32 87.46 C-102.41 83.4 -100.96 81.67 -98.38 78.61 C-95.53 76.22 -93.97 75.64 -90.25 75.42 C-86.59 76.12 -84.28 78.08 -81.38 80.36 C-67.85 90.8 -50.81 91.55 -34.38 90.61 C-28.12 89.7 -23.38 88.51 -18.38 84.61 C-17.66 84.44 -16.94 84.28 -16.19 84.11 C-15.59 83.94 -15 83.78 -14.38 83.61 C-13.3 80.39 -13.25 77.99 -13.25 74.61 C-13.25 73.56 -13.25 72.51 -13.25 71.42 C-13.26 68.53 -13.26 68.53 -14.38 65.61 C-16.04 64.62 -16.04 64.62 -18.07 63.98 C-18.73 63.74 -19.39 63.5 -20.08 63.26 C-26.67 61.4 -33.27 61.37 -40.07 61.17 C-81.2 59.68 -81.2 59.68 -94.32 46.69 C-100.13 40.43 -102.95 34.42 -102.82 25.73 C-102.81 25.03 -102.81 24.33 -102.8 23.61 C-102.63 17.81 -101.37 13.52 -98.38 8.61 C-97.64 7.16 -97.64 7.16 -96.88 5.67 C-95.2 3.37 -93.89 2.82 -91.38 1.61 C-91.05 0.72 -91.05 0.72 -90.72 -0.2 C-88.66 -3.57 -85.4 -4.8 -81.94 -6.45 C-81.22 -6.8 -80.5 -7.15 -79.76 -7.52 C-74.13 -10.19 -68.52 -12.2 -62.38 -13.39 C-61.05 -13.66 -61.05 -13.66 -59.69 -13.94 C-37.97 -16.91 -17.76 -12.91 0 0 Z M-42.38 39.61 C-42.38 39.94 -42.38 40.27 -42.38 40.61 C-39.74 40.61 -37.1 40.61 -34.38 40.61 C-34.38 40.28 -34.38 39.95 -34.38 39.61 C-37.02 39.61 -39.66 39.61 -42.38 39.61 Z M-11.38 72.61 C-11.38 74.26 -11.38 75.91 -11.38 77.61 C-11.05 77.61 -10.72 77.61 -10.38 77.61 C-10.38 75.96 -10.38 74.31 -10.38 72.61 C-10.71 72.61 -11.04 72.61 -11.38 72.61 Z " fill="#0D8487" transform="translate(718.37890625,172.390625)"/>
<path d="M0 0 C3.48 2.86 6.78 5.85 10 9 C10.59 9.54 11.17 10.08 11.77 10.64 C13 12 13 12 13 14 C13.66 14 14.32 14 15 14 C24.86 30.04 29.84 47.04 26 66 C25.34 67.34 24.67 68.67 24 70 C23.92 71.01 23.84 72.02 23.75 73.06 C22.75 81.62 16.95 88.61 10.56 93.88 C7.64 96.34 5.35 98.98 3 102 C2.01 102.66 1.02 103.32 0 104 C-0.94 104.97 -0.94 104.97 -1.89 105.96 C-10.51 114.28 -25.55 116.02 -37.06 116.38 C-54.96 115.77 -69.39 109.63 -82 97 C-82.62 96.45 -83.25 95.9 -83.89 95.33 C-94.34 85.84 -100.61 72.51 -101.38 58.52 C-101.89 42.17 -99.59 25.28 -87.88 12.73 C-87.26 12.16 -86.64 11.59 -86 11 C-85.46 10.46 -84.93 9.93 -84.38 9.38 C-82.58 7.58 -80.79 5.79 -79 4 C-78.41 3.37 -77.82 2.74 -77.22 2.09 C-56.14 -17.8 -22.17 -16.16 0 0 Z M-58.52 16.66 C-61 18 -61 18 -63.13 18.47 C-65.63 19.18 -66.51 20.37 -68.12 22.38 C-68.87 23.28 -68.87 23.28 -69.63 24.21 C-72.04 27.36 -73.6 30.32 -75 34 C-75.35 34.86 -75.71 35.73 -76.07 36.62 C-80.08 47.34 -80.75 57.8 -76.25 68.48 C-71.35 78.35 -64.77 86.52 -54.19 90.44 C-52.47 90.99 -50.74 91.52 -49 92 C-48.4 92.19 -47.8 92.38 -47.18 92.58 C-35.23 94.89 -23.14 93.1 -12.62 87.06 C-11.76 86.38 -10.89 85.7 -10 85 C-9.47 84.6 -8.93 84.19 -8.38 83.78 C-5.35 81.41 -3.58 79.46 -2 76 C-1.67 75.37 -1.34 74.75 -1 74.11 C-0.67 73.47 -0.34 72.84 0 72.19 C0.5 71.25 0.5 71.25 1 70.29 C5.82 59.25 5.62 45.82 1.26 34.65 C-4.08 23.44 -11.52 16.67 -23 12 C-35.78 7.85 -47.14 9.94 -58.52 16.66 Z " fill="#0D8487" transform="translate(950,170)"/>
<path d="M0 0 C0 0.66 0 1.32 0 2 C0.99 2.33 1.98 2.66 3 3 C5.07 6.07 5.29 8.78 5.41 12.42 C5.45 13.45 5.49 14.47 5.53 15.53 C5.56 16.59 5.59 17.65 5.62 18.75 C5.66 19.83 5.7 20.91 5.74 22.02 C5.84 24.68 5.92 27.34 6 30 C7.24 29.98 7.24 29.98 8.5 29.97 C16.28 29.87 24.06 29.79 31.84 29.74 C35.85 29.71 39.85 29.68 43.85 29.62 C47.71 29.57 51.57 29.54 55.44 29.53 C56.91 29.52 58.38 29.5 59.85 29.47 C72.81 29.24 72.81 29.24 77.4 32.41 C80.71 35.71 81.2 37.26 81.38 41.81 C81.42 42.66 81.47 43.52 81.52 44.39 C80.76 48.21 78.98 49.57 76 52 C72.7 52.64 72.7 52.64 68.91 52.66 C68.22 52.67 67.53 52.68 66.81 52.69 C64.54 52.72 62.26 52.71 59.98 52.71 C58.4 52.72 56.81 52.74 55.23 52.75 C51.07 52.79 46.9 52.8 42.74 52.81 C38.49 52.82 34.24 52.85 29.99 52.89 C21.66 52.95 13.33 52.99 5 53 C4.97 60.32 4.98 67.64 5.03 74.96 C5.05 78.36 5.06 81.76 5.04 85.16 C4.58 108.91 4.58 108.91 16.31 128.69 C25.04 134.93 35.72 134.81 46 134 C51.99 132.69 57.99 129.71 62 125 C62.6 124.03 63.2 123.06 63.81 122.06 C66.87 117.79 69.78 115.42 75 114.44 C79.23 115.23 80.93 117 84 120 C85.24 122.48 85.17 124.24 85.19 127 C85.2 127.89 85.22 128.77 85.23 129.69 C84.91 132.88 83.22 133.78 81 136 C80.67 136.66 80.34 137.32 80 138 C78.21 139.58 76.36 141.07 74.5 142.56 C74 143.04 73.51 143.51 73 144 C73 144.66 73 145.32 73 146 C61.14 155.48 46.94 158.94 32 158 C15.47 155.83 3.36 148.07 -7.17 135.38 C-15.85 123.47 -17.13 112.92 -17.18 98.5 C-17.18 97.51 -17.19 96.51 -17.2 95.49 C-17.22 92.22 -17.23 88.96 -17.24 85.7 C-17.24 84.58 -17.25 83.46 -17.25 82.31 C-17.27 76.4 -17.29 70.48 -17.3 64.57 C-17.31 58.47 -17.34 52.37 -17.38 46.26 C-17.41 41.56 -17.41 36.86 -17.42 32.15 C-17.42 29.9 -17.43 27.65 -17.45 25.4 C-17.48 22.26 -17.48 19.12 -17.47 15.98 C-17.48 15.05 -17.5 14.13 -17.51 13.17 C-17.46 7.48 -16.74 4.36 -13 0 C-8.62 -2.65 -4.53 -2.27 0 0 Z M35 136 C35 136.33 35 136.66 35 137 C36.98 137 38.96 137 41 137 C41 136.67 41 136.34 41 136 C39.02 136 37.04 136 35 136 Z " fill="#0D8487" transform="translate(758,128)"/>
<path d="M0 0 C4.44 3.26 8.46 6.96 12.42 10.78 C13.01 11.32 13.6 11.87 14.21 12.43 C15.42 13.78 15.42 13.78 15.42 15.78 C16.08 15.78 16.74 15.78 17.42 15.78 C18.55 17.97 19.68 20.15 20.8 22.34 C21.11 22.95 21.43 23.56 21.76 24.19 C25.09 30.75 26.67 37.05 27.23 44.41 C27.4 46.31 27.4 46.31 27.57 48.26 C27.38 52.92 25.85 55.3 22.67 58.59 C19.42 60.31 17.05 60.16 13.42 59.78 C9.81 58.27 7.35 56.18 5.25 52.84 C3.73 49.08 3.5 45.04 2.97 41.04 C1.72 33.59 -1.71 26.65 -7.58 21.78 C-15.9 16.78 -23.8 13.67 -33.58 14.78 C-39.4 16.39 -44.42 18.67 -49.58 21.78 C-50.63 22 -50.63 22 -51.7 22.22 C-54.35 23.01 -55.13 24.5 -56.58 26.78 C-57.7 28.9 -57.7 28.9 -58.58 31.78 C-59.58 34.01 -60.61 36.22 -61.64 38.43 C-63.52 43.13 -63.71 47.59 -63.72 52.62 C-63.72 53.29 -63.73 53.95 -63.73 54.64 C-63.74 56.08 -63.74 57.52 -63.75 58.97 C-63.75 61.25 -63.77 63.53 -63.79 65.81 C-63.84 72.3 -63.89 78.79 -63.9 85.27 C-63.91 89.25 -63.94 93.22 -63.99 97.2 C-64 98.71 -64 100.22 -64 101.73 C-64 103.85 -64.02 105.96 -64.05 108.07 C-64.05 109.27 -64.06 110.48 -64.07 111.71 C-64.68 115.37 -65.68 116.54 -68.58 118.78 C-72.67 120.12 -76.39 120.26 -80.39 118.66 C-83.94 115.61 -86.34 113.3 -87.08 108.56 C-87.08 107.34 -87.08 106.12 -87.08 104.87 C-87.09 104.2 -87.09 103.52 -87.1 102.82 C-87.11 100.6 -87.09 98.37 -87.07 96.15 C-87.07 94.59 -87.08 93.03 -87.08 91.47 C-87.08 88.21 -87.07 84.94 -87.04 81.67 C-87.02 77.51 -87.02 73.36 -87.03 69.2 C-87.04 65.98 -87.03 62.76 -87.02 59.54 C-87.01 58 -87.01 56.47 -87.02 54.94 C-87.04 38.55 -83.51 21.98 -71.58 9.78 C-70.59 9.45 -69.6 9.12 -68.58 8.78 C-68.25 7.79 -67.92 6.8 -67.58 5.78 C-48.89 -10.76 -20.98 -13.44 0 0 Z " fill="#0D8487" transform="translate(1074.578125,166.21875)"/>
<path d="M0 0 C2.71 1.82 4.54 3.07 6 6 C6.1 7.53 6.14 9.06 6.14 10.59 C6.15 12.04 6.15 12.04 6.16 13.51 C6.16 14.58 6.16 15.64 6.16 16.74 C6.17 17.85 6.17 18.97 6.18 20.12 C6.19 23.83 6.2 27.54 6.2 31.25 C6.21 33.81 6.21 36.38 6.22 38.95 C6.23 43.65 6.24 48.35 6.24 53.05 C6.24 59.97 6.26 66.89 6.29 73.82 C6.31 79.81 6.32 85.8 6.32 91.79 C6.33 94.34 6.33 96.9 6.35 99.45 C6.36 103.01 6.36 106.57 6.36 110.13 C6.37 111.2 6.37 112.26 6.38 113.35 C6.38 114.32 6.37 115.29 6.37 116.29 C6.37 117.13 6.37 117.97 6.37 118.84 C5.92 121.49 5 122.27 3 124 C2.67 124.66 2.34 125.32 2 126 C-2.12 127.13 -5.83 127.47 -9.81 125.88 C-15.69 120.84 -15.69 120.84 -16.37 116.79 C-16.52 113.97 -16.54 111.17 -16.52 108.34 C-16.52 107.26 -16.53 106.19 -16.54 105.08 C-16.56 101.54 -16.54 97.99 -16.53 94.44 C-16.53 91.97 -16.54 89.51 -16.54 87.04 C-16.55 81.87 -16.54 76.7 -16.52 71.53 C-16.5 64.9 -16.51 58.28 -16.54 51.65 C-16.55 46.56 -16.55 41.46 -16.54 36.37 C-16.53 33.92 -16.54 31.48 -16.55 29.04 C-16.56 25.62 -16.54 22.21 -16.52 18.79 C-16.53 17.78 -16.53 16.77 -16.54 15.74 C-16.47 9.84 -15.89 6.51 -12 2 C-7.9 -1.43 -5.1 -1.36 0 0 Z " fill="#0D8487" transform="translate(215,159)"/>
<path d="M0 0 C2.81 2.5 2.81 2.5 5 5 C5.33 5.33 5.66 5.66 6 6 C6.57 10.29 7.16 14.98 4.94 18.84 C2.28 21.32 -0.46 22.35 -4 22.62 C-8.67 22.32 -10.82 20.33 -14 17 C-16.16 14.28 -16.09 12.23 -15.81 8.88 C-15 5 -15 5 -12 3 C-11.32 2.48 -10.64 1.97 -9.94 1.44 C-6.27 -1.28 -4.43 -1.22 0 0 Z " fill="#0D8386" transform="translate(215,127)"/>
<path d="M0 0 C0.33 0 0.66 0 1 0 C1 33.33 1 66.66 1 101 C0.67 101 0.34 101 0 101 C0 67.67 0 34.34 0 0 Z " fill="#0E8588" transform="translate(740,136)"/>
<path d="M0 0 C0 3 0 3 -2.5 5.69 C-3.33 6.45 -4.15 7.21 -5 8 C-5.66 7.67 -6.32 7.34 -7 7 C-4.69 4.69 -2.38 2.38 0 0 Z " fill="#063E40" transform="translate(961,263)"/>
<path d="M0 0 C0.33 0 0.66 0 1 0 C1 3.63 1 7.26 1 11 C0.67 11 0.34 11 0 11 C0 7.37 0 3.74 0 0 Z " fill="#0E8588" transform="translate(480,217)"/>
<path d="M0 0 C0 0.99 0 1.98 0 3 C-1.98 3.99 -1.98 3.99 -4 5 C-2.68 3.35 -1.36 1.7 0 0 Z " fill="#063B3D" transform="translate(1022,188)"/>
<path d="M0 0 C0.33 0 0.66 0 1 0 C1 2.64 1 5.28 1 8 C0.67 8 0.34 8 0 8 C0 5.36 0 2.72 0 0 Z " fill="#0E8588" transform="translate(848,219)"/>
<path d="M0 0 C0 0.99 0 1.98 0 3 C-0.99 3 -1.98 3 -3 3 C-2.01 2.01 -1.02 1.02 0 0 Z " fill="#06393B" transform="translate(258,274)"/>
<path d="M0 0 C0 0.99 0 1.98 0 3 C-0.66 2.67 -1.32 2.34 -2 2 C-1.34 1.34 -0.68 0.68 0 0 Z " fill="#053537" transform="translate(606,228)"/>
<path d="M0 0 C1 4 1 4 1 4 Z " fill="#0E8588" transform="translate(615,196)"/>
<path d="M0 0 C4 1 4 1 4 1 Z " fill="#0E8588" transform="translate(306,176)"/>
<path d="M0 0 C0.33 0.66 0.66 1.32 1 2 C0.34 1.67 -0.32 1.34 -1 1 C-0.67 0.67 -0.34 0.34 0 0 Z " fill="#042D2E" transform="translate(409,255)"/>
<path d="M0 0 C0.33 0.66 0.66 1.32 1 2 C0.34 1.67 -0.32 1.34 -1 1 C-0.67 0.67 -0.34 0.34 0 0 Z " fill="#042D2E" transform="translate(412,251)"/>
<path d="M0 0 C0.33 0.66 0.66 1.32 1 2 C0.34 1.67 -0.32 1.34 -1 1 C-0.67 0.67 -0.34 0.34 0 0 Z " fill="#042D2E" transform="translate(415,247)"/>
<path d="M0 0 C0.33 0.66 0.66 1.32 1 2 C0.34 1.67 -0.32 1.34 -1 1 C-0.67 0.67 -0.34 0.34 0 0 Z " fill="#042D2E" transform="translate(886,189)"/>
<path d="" fill="#000102" transform="translate(0,0)"/>
<path d="" fill="#000102" transform="translate(0,0)"/>
<path d="" fill="#000102" transform="translate(0,0)"/>
<path d="" fill="#000102" transform="translate(0,0)"/>
<path d="" fill="#000102" transform="translate(0,0)"/>
<path d="" fill="#000102" transform="translate(0,0)"/>
<path d="" fill="#000102" transform="translate(0,0)"/>
<path d="" fill="#000102" transform="translate(0,0)"/>
<path d="" fill="#000102" transform="translate(0,0)"/>
<path d="" fill="#000102" transform="translate(0,0)"/>
<path d="" fill="#000102" transform="translate(0,0)"/>
<path d="" fill="#000102" transform="translate(0,0)"/>
<path d="" fill="#000102" transform="translate(0,0)"/>
<path d="" fill="#000102" transform="translate(0,0)"/>
<path d="" fill="#000102" transform="translate(0,0)"/>
<path d="" fill="#000102" transform="translate(0,0)"/>
<path d="" fill="#000102" transform="translate(0,0)"/>
<path d="" fill="#000102" transform="translate(0,0)"/>
<path d="" fill="#000102" transform="translate(0,0)"/>
<path d="" fill="#000102" transform="translate(0,0)"/>
<path d="" fill="#000102" transform="translate(0,0)"/>
<path d="" fill="#000102" transform="translate(0,0)"/>
<path d="" fill="#000102" transform="translate(0,0)"/>
<path d="" fill="#000102" transform="translate(0,0)"/>
<path d="" fill="#000102" transform="translate(0,0)"/>
<path d="" fill="#000102" transform="translate(0,0)"/>
<path d="" fill="#000102" transform="translate(0,0)"/>
<path d="" fill="#000102" transform="translate(0,0)"/>
<path d="" fill="#000102" transform="translate(0,0)"/>
<path d="" fill="#000102" transform="translate(0,0)"/>
<path d="" fill="#000102" transform="translate(0,0)"/>
<path d="" fill="#000102" transform="translate(0,0)"/>
<path d="" fill="#000102" transform="translate(0,0)"/>
<path d="" fill="#000102" transform="translate(0,0)"/>
<path d="" fill="#000102" transform="translate(0,0)"/>
<path d="" fill="#000102" transform="translate(0,0)"/>
<path d="" fill="#000102" transform="translate(0,0)"/>
<path d="" fill="#000102" transform="translate(0,0)"/>
<path d="" fill="#000102" transform="translate(0,0)"/>
<path d="" fill="#000102" transform="translate(0,0)"/>
<path d="" fill="#000102" transform="translate(0,0)"/>
<path d="" fill="#0E8588" transform="translate(0,0)"/>
<path d="" fill="#0E8588" transform="translate(0,0)"/>
<path d="" fill="#0E8588" transform="translate(0,0)"/>
<path d="" fill="#000102" transform="translate(0,0)"/>
<path d="" fill="#0E8588" transform="translate(0,0)"/>
<path d="" fill="#0E8588" transform="translate(0,0)"/>
<path d="" fill="#0E8588" transform="translate(0,0)"/>
<path d="" fill="#0E8588" transform="translate(0,0)"/>
<path d="" fill="#0E8588" transform="translate(0,0)"/>
<path d="" fill="#000102" transform="translate(0,0)"/>
<path d="" fill="#0E8588" transform="translate(0,0)"/>
<path d="" fill="#000102" transform="translate(0,0)"/>
<path d="" fill="#0E8588" transform="translate(0,0)"/>
<path d="" fill="#0E8588" transform="translate(0,0)"/>
<path d="" fill="#000102" transform="translate(0,0)"/>
<path d="" fill="#000102" transform="translate(0,0)"/>
<path d="" fill="#000102" transform="translate(0,0)"/>
<path d="" fill="#000102" transform="translate(0,0)"/>
<path d="" fill="#000102" transform="translate(0,0)"/>
<path d="" fill="#000102" transform="translate(0,0)"/>
<path d="" fill="#000102" transform="translate(0,0)"/>
<path d="" fill="#000102" transform="translate(0,0)"/>
<path d="" fill="#000102" transform="translate(0,0)"/>
<path d="" fill="#000102" transform="translate(0,0)"/>
<path d="" fill="#000102" transform="translate(0,0)"/>
<path d="" fill="#000102" transform="translate(0,0)"/>
<path d="" fill="#000102" transform="translate(0,0)"/>
<path d="" fill="#000102" transform="translate(0,0)"/>
<path d="" fill="#000102" transform="translate(0,0)"/>
<path d="" fill="#000102" transform="translate(0,0)"/>
<path d="" fill="#000102" transform="translate(0,0)"/>
<path d="" fill="#000102" transform="translate(0,0)"/>
<path d="" fill="#000102" transform="translate(0,0)"/>
<path d="" fill="#000102" transform="translate(0,0)"/>
<path d="" fill="#000102" transform="translate(0,0)"/>
<path d="" fill="#000102" transform="translate(0,0)"/>
<path d="" fill="#000102" transform="translate(0,0)"/>
<path d="" fill="#000102" transform="translate(0,0)"/>
<path d="" fill="#000102" transform="translate(0,0)"/>
<path d="" fill="#000102" transform="translate(0,0)"/>
<path d="" fill="#000102" transform="translate(0,0)"/>
<path d="" fill="#000102" transform="translate(0,0)"/>
<path d="" fill="#000102" transform="translate(0,0)"/>
<path d="" fill="#000102" transform="translate(0,0)"/>
<path d="" fill="#000102" transform="translate(0,0)"/>
<path d="" fill="#000102" transform="translate(0,0)"/>
<path d="" fill="#000102" transform="translate(0,0)"/>
<path d="" fill="#000102" transform="translate(0,0)"/>
<path d="" fill="#000102" transform="translate(0,0)"/>
<path d="" fill="#000102" transform="translate(0,0)"/>
<path d="" fill="#000102" transform="translate(0,0)"/>
<path d="" fill="#000102" transform="translate(0,0)"/>
<path d="" fill="#000102" transform="translate(0,0)"/>
<path d="" fill="#000102" transform="translate(0,0)"/>
<path d="" fill="#000102" transform="translate(0,0)"/>
<path d="" fill="#000102" transform="translate(0,0)"/>
<path d="" fill="#000102" transform="translate(0,0)"/>
<path d="" fill="#000102" transform="translate(0,0)"/>
<path d="" fill="#000102" transform="translate(0,0)"/>
<path d="" fill="#000102" transform="translate(0,0)"/>
<path d="" fill="#000102" transform="translate(0,0)"/>
<path d="" fill="#000102" transform="translate(0,0)"/>
<path d="" fill="#000102" transform="translate(0,0)"/>
<path d="" fill="#000102" transform="translate(0,0)"/>
<path d="" fill="#000102" transform="translate(0,0)"/>
<path d="" fill="#000102" transform="translate(0,0)"/>
<path d="" fill="#000102" transform="translate(0,0)"/>
<path d="" fill="#000102" transform="translate(0,0)"/>
<path d="" fill="#000102" transform="translate(0,0)"/>
<path d="" fill="#000102" transform="translate(0,0)"/>
<path d="" fill="#000102" transform="translate(0,0)"/>
<path d="" fill="#000102" transform="translate(0,0)"/>
<path d="" fill="#000102" transform="translate(0,0)"/>
<path d="" fill="#000102" transform="translate(0,0)"/>
<path d="" fill="#0E8588" transform="translate(0,0)"/>
<path d="" fill="#000102" transform="translate(0,0)"/>
<path d="" fill="#0E8588" transform="translate(0,0)"/>
<path d="" fill="#0E8588" transform="translate(0,0)"/>
<path d="" fill="#0E8588" transform="translate(0,0)"/>
<path d="" fill="#0E8588" transform="translate(0,0)"/>
<path d="" fill="#0E8588" transform="translate(0,0)"/>
<path d="" fill="#0E8588" transform="translate(0,0)"/>
<path d="" fill="#0E8588" transform="translate(0,0)"/>
<path d="" fill="#0E8588" transform="translate(0,0)"/>
<path d="" fill="#0E8588" transform="translate(0,0)"/>
<path d="" fill="#0E8588" transform="translate(0,0)"/>
<path d="" fill="#0E8588" transform="translate(0,0)"/>
<path d="" fill="#0E8588" transform="translate(0,0)"/>
<path d="" fill="#0E8588" transform="translate(0,0)"/>
<path d="" fill="#0E8588" transform="translate(0,0)"/>
<path d="" fill="#0E8588" transform="translate(0,0)"/>
<path d="" fill="#0E8588" transform="translate(0,0)"/>
<path d="" fill="#0E8588" transform="translate(0,0)"/>
</svg>
