<svg width="40" height="27" viewBox="0 0 40 27" fill="none" xmlns="http://www.w3.org/2000/svg">
<path d="M30.8525 21.4243C30.4279 21.4243 30.0109 21.2982 29.6469 21.0537L22.7244 16.354C22.4742 16.1884 22.4059 15.8335 22.5652 15.5812C22.7244 15.321 23.0656 15.25 23.3082 15.4156L30.2308 20.1153C30.4961 20.2967 30.807 20.3519 31.1103 20.2731C31.4136 20.1942 31.6638 19.9971 31.8155 19.7053C32.1036 19.1691 31.9368 18.4909 31.4363 18.1597L21.8373 11.875C21.4127 11.599 20.9198 11.4492 20.4194 11.4492H15.9231V12.6557C15.9231 13.8464 14.9905 14.8242 13.838 14.8242C12.6855 14.8242 11.7529 13.8543 11.7529 12.6557V9.06777C11.7529 8.50001 12.0714 7.97957 12.5642 7.743L16.507 5.81106C16.5752 5.77952 16.6586 5.75586 16.7344 5.75586H27.5012C27.7969 5.75586 28.0395 6.0082 28.0395 6.31573C28.0395 6.62326 27.7969 6.8756 27.5012 6.8756H16.8558L13.0192 8.75235C12.9054 8.80755 12.8296 8.93371 12.8296 9.05988V12.6478C12.8296 13.2234 13.277 13.6887 13.8305 13.6887C14.384 13.6887 14.8313 13.2234 14.8313 12.6478V10.8814C14.8313 10.5739 15.0739 10.3216 15.3696 10.3216H20.4042C21.1094 10.3216 21.7994 10.5266 22.3984 10.9209L31.9974 17.2056C32.9831 17.8522 33.3091 19.1849 32.7481 20.2415C32.4524 20.7935 31.9443 21.1957 31.3605 21.3534C31.1861 21.4007 31.0117 21.4165 30.8298 21.4165L30.8525 21.4243Z" fill="#3E8CAB"/>
<path d="M30.8525 21.4243C30.4279 21.4243 30.0109 21.2982 29.6469 21.0537L22.7244 16.354C22.4742 16.1884 22.4059 15.8335 22.5652 15.5812C22.7244 15.321 23.0656 15.25 23.3082 15.4156L30.2308 20.1153C30.4961 20.2967 30.807 20.3519 31.1103 20.2731C31.4136 20.1942 31.6638 19.9971 31.8155 19.7053C32.1036 19.1691 31.9368 18.4909 31.4363 18.1597L21.8373 11.875C21.4127 11.599 20.9198 11.4492 20.4194 11.4492H15.9231V12.6557C15.9231 13.8464 14.9905 14.8242 13.838 14.8242C12.6855 14.8242 11.7529 13.8543 11.7529 12.6557V9.06777C11.7529 8.50001 12.0714 7.97957 12.5642 7.743L16.507 5.81106C16.5752 5.77952 16.6586 5.75586 16.7344 5.75586H27.5012C27.7969 5.75586 28.0395 6.0082 28.0395 6.31573C28.0395 6.62326 27.7969 6.8756 27.5012 6.8756H16.8558L13.0192 8.75235C12.9054 8.80755 12.8296 8.93371 12.8296 9.05988V12.6478C12.8296 13.2234 13.277 13.6887 13.8305 13.6887C14.384 13.6887 14.8313 13.2234 14.8313 12.6478V10.8814C14.8313 10.5739 15.0739 10.3216 15.3696 10.3216H20.4042C21.1094 10.3216 21.7994 10.5266 22.3984 10.9209L31.9974 17.2056C32.9831 17.8522 33.3091 19.1849 32.7481 20.2415C32.4524 20.7935 31.9443 21.1957 31.3605 21.3534C31.1861 21.4007 31.0117 21.4165 30.8298 21.4165L30.8525 21.4243Z" fill="#B2B5BC"/>
<path d="M26.8408 23.0568C26.3859 23.0568 25.9461 22.9149 25.567 22.6467L20.6841 19.2323C20.4338 19.0588 20.3732 18.7119 20.54 18.4517C20.7068 18.1914 21.0404 18.1284 21.2906 18.3018L26.1812 21.7163C26.4541 21.9055 26.7877 21.9765 27.1062 21.9055C27.4322 21.8345 27.7052 21.6374 27.8872 21.3456C28.2511 20.7621 28.0843 19.9815 27.5308 19.6029L23.0876 16.5907C22.8374 16.4251 22.7692 16.0702 22.9284 15.8179C23.0876 15.5577 23.4288 15.4867 23.6714 15.6523L28.1146 18.6646C29.1685 19.3822 29.4718 20.8567 28.7894 21.9607C28.4558 22.5048 27.9326 22.8754 27.3185 23.0095C27.1593 23.041 27.0076 23.0568 26.8484 23.0568H26.8408Z" fill="#3E8CAB"/>
<path d="M26.8408 23.0568C26.3859 23.0568 25.9461 22.9149 25.567 22.6467L20.6841 19.2323C20.4338 19.0588 20.3732 18.7119 20.54 18.4517C20.7068 18.1914 21.0404 18.1284 21.2906 18.3018L26.1812 21.7163C26.4541 21.9055 26.7877 21.9765 27.1062 21.9055C27.4322 21.8345 27.7052 21.6374 27.8872 21.3456C28.2511 20.7621 28.0843 19.9815 27.5308 19.6029L23.0876 16.5907C22.8374 16.4251 22.7692 16.0702 22.9284 15.8179C23.0876 15.5577 23.4288 15.4867 23.6714 15.6523L28.1146 18.6646C29.1685 19.3822 29.4718 20.8567 28.7894 21.9607C28.4558 22.5048 27.9326 22.8754 27.3185 23.0095C27.1593 23.041 27.0076 23.0568 26.8484 23.0568H26.8408Z" fill="#B2B5BC"/>
<path d="M23.4898 25.0679C23.0652 25.0679 22.6406 24.9497 22.2614 24.6894L18.9025 22.4421C18.6523 22.2765 18.5765 21.9295 18.7433 21.6693C18.9025 21.4091 19.2361 21.3302 19.4864 21.5037L22.8453 23.7511C23.3684 24.1059 24.0736 23.9719 24.4527 23.4514C24.6498 23.1754 24.7332 22.8364 24.6726 22.4973C24.6119 22.1582 24.4375 21.8664 24.157 21.6693L21.9657 20.1395C21.7155 19.966 21.6549 19.6191 21.8217 19.3588C21.9885 19.0986 22.3221 19.0355 22.5723 19.209L24.7636 20.7388C25.2867 21.1015 25.6355 21.6614 25.7417 22.308C25.8478 22.9546 25.6962 23.6012 25.3171 24.1217C24.8697 24.7368 24.1873 25.0679 23.4898 25.0679Z" fill="#3E8CAB"/>
<path d="M23.4898 25.0679C23.0652 25.0679 22.6406 24.9497 22.2614 24.6894L18.9025 22.4421C18.6523 22.2765 18.5765 21.9295 18.7433 21.6693C18.9025 21.4091 19.2361 21.3302 19.4864 21.5037L22.8453 23.7511C23.3684 24.1059 24.0736 23.9719 24.4527 23.4514C24.6498 23.1754 24.7332 22.8364 24.6726 22.4973C24.6119 22.1582 24.4375 21.8664 24.157 21.6693L21.9657 20.1395C21.7155 19.966 21.6549 19.6191 21.8217 19.3588C21.9885 19.0986 22.3221 19.0355 22.5723 19.209L24.7636 20.7388C25.2867 21.1015 25.6355 21.6614 25.7417 22.308C25.8478 22.9546 25.6962 23.6012 25.3171 24.1217C24.8697 24.7368 24.1873 25.0679 23.4898 25.0679Z" fill="#B2B5BC"/>
<path d="M19.3883 26.4801C18.994 26.4801 18.5922 26.3697 18.2358 26.1411L17.8719 25.9045C17.6217 25.7389 17.5383 25.3998 17.6975 25.1317C17.8567 24.8715 18.1827 24.7848 18.4405 24.9503L18.8045 25.1869C19.3125 25.5102 19.9797 25.3683 20.3209 24.8636C20.5029 24.5955 20.5711 24.2722 20.5105 23.9568C20.4498 23.6335 20.2754 23.3654 20.0101 23.184L19.1836 22.632C18.9334 22.4664 18.8576 22.1195 19.0244 21.8592C19.1836 21.599 19.5172 21.5202 19.7674 21.6936L20.5939 22.2456C21.1095 22.5926 21.4507 23.1209 21.572 23.7439C21.6857 24.3668 21.5568 24.9977 21.2005 25.5181C20.7683 26.1489 20.0859 26.488 19.3883 26.488V26.4801Z" fill="#3E8CAB"/>
<path d="M19.3883 26.4801C18.994 26.4801 18.5922 26.3697 18.2358 26.1411L17.8719 25.9045C17.6217 25.7389 17.5383 25.3998 17.6975 25.1317C17.8567 24.8715 18.1827 24.7848 18.4405 24.9503L18.8045 25.1869C19.3125 25.5102 19.9797 25.3683 20.3209 24.8636C20.5029 24.5955 20.5711 24.2722 20.5105 23.9568C20.4498 23.6335 20.2754 23.3654 20.0101 23.184L19.1836 22.632C18.9334 22.4664 18.8576 22.1195 19.0244 21.8592C19.1836 21.599 19.5172 21.5202 19.7674 21.6936L20.5939 22.2456C21.1095 22.5926 21.4507 23.1209 21.572 23.7439C21.6857 24.3668 21.5568 24.9977 21.2005 25.5181C20.7683 26.1489 20.0859 26.488 19.3883 26.488V26.4801Z" fill="#B2B5BC"/>
<path d="M16.3021 26.9843C15.8472 26.9843 15.3922 26.8265 15.0131 26.5111C14.5658 26.1405 14.3004 25.6122 14.2549 25.0208C14.2094 24.4294 14.3914 23.8616 14.7705 23.42L14.9373 23.2229C15.6652 22.3712 16.9087 22.2687 17.7579 22.9863L17.4243 23.4279L17.7655 22.9942C18.2052 23.3648 18.4858 23.9089 18.5237 24.5003C18.5616 25.0917 18.372 25.6753 17.9853 26.109L17.811 26.3061C17.4091 26.7635 16.8556 27 16.2945 27L16.3021 26.9843ZM16.4689 23.6329C16.2035 23.6329 15.9382 23.7512 15.741 23.972L15.5742 24.1691C15.3922 24.382 15.3088 24.6501 15.3316 24.934C15.3543 25.2179 15.4832 25.4702 15.6955 25.6437C16.0974 25.9749 16.6812 25.9355 17.03 25.5412L17.2044 25.3441C17.3864 25.1312 17.4773 24.8631 17.4622 24.5792C17.4394 24.2953 17.3105 24.043 17.0982 23.8616C16.9163 23.7118 16.6964 23.6329 16.4841 23.6329H16.4689Z" fill="#3E8CAB"/>
<path d="M16.3021 26.9843C15.8472 26.9843 15.3922 26.8265 15.0131 26.5111C14.5658 26.1405 14.3004 25.6122 14.2549 25.0208C14.2094 24.4294 14.3914 23.8616 14.7705 23.42L14.9373 23.2229C15.6652 22.3712 16.9087 22.2687 17.7579 22.9863L17.4243 23.4279L17.7655 22.9942C18.2052 23.3648 18.4858 23.9089 18.5237 24.5003C18.5616 25.0917 18.372 25.6753 17.9853 26.109L17.811 26.3061C17.4091 26.7635 16.8556 27 16.2945 27L16.3021 26.9843ZM16.4689 23.6329C16.2035 23.6329 15.9382 23.7512 15.741 23.972L15.5742 24.1691C15.3922 24.382 15.3088 24.6501 15.3316 24.934C15.3543 25.2179 15.4832 25.4702 15.6955 25.6437C16.0974 25.9749 16.6812 25.9355 17.03 25.5412L17.2044 25.3441C17.3864 25.1312 17.4773 24.8631 17.4622 24.5792C17.4394 24.2953 17.3105 24.043 17.0982 23.8616C16.9163 23.7118 16.6964 23.6329 16.4841 23.6329H16.4689Z" fill="#B2B5BC"/>
<path d="M13.4735 25.5257C13.011 25.5257 12.5485 25.368 12.1618 25.0368C11.722 24.6662 11.4567 24.1379 11.4112 23.5464C11.3657 22.9629 11.5476 22.3952 11.9192 21.9536L14.0422 19.4539C14.7777 18.5865 16.0363 18.4761 16.9007 19.2173C17.3708 19.6195 17.6286 20.1478 17.6741 20.7392C17.7196 21.3306 17.53 21.8984 17.1509 22.3321L15.0051 24.8081C14.5957 25.2734 14.0346 25.5178 13.4735 25.5178V25.5257ZM15.5965 19.856C15.3236 19.856 15.0582 19.9743 14.8611 20.203L12.738 22.7027C12.5637 22.9156 12.4727 23.1837 12.4954 23.4597C12.5182 23.7357 12.6471 23.988 12.8518 24.1694C13.2612 24.5164 13.8526 24.469 14.209 24.0669L16.3548 21.5908C16.5367 21.3779 16.6277 21.1098 16.605 20.8338C16.5822 20.5499 16.4609 20.2976 16.2486 20.1162C16.0363 19.9349 15.8164 19.856 15.5965 19.856Z" fill="#3E8CAB"/>
<path d="M13.4735 25.5257C13.011 25.5257 12.5485 25.368 12.1618 25.0368C11.722 24.6662 11.4567 24.1379 11.4112 23.5464C11.3657 22.9629 11.5476 22.3952 11.9192 21.9536L14.0422 19.4539C14.7777 18.5865 16.0363 18.4761 16.9007 19.2173C17.3708 19.6195 17.6286 20.1478 17.6741 20.7392C17.7196 21.3306 17.53 21.8984 17.1509 22.3321L15.0051 24.8081C14.5957 25.2734 14.0346 25.5178 13.4735 25.5178V25.5257ZM15.5965 19.856C15.3236 19.856 15.0582 19.9743 14.8611 20.203L12.738 22.7027C12.5637 22.9156 12.4727 23.1837 12.4954 23.4597C12.5182 23.7357 12.6471 23.988 12.8518 24.1694C13.2612 24.5164 13.8526 24.469 14.209 24.0669L16.3548 21.5908C16.5367 21.3779 16.6277 21.1098 16.605 20.8338C16.5822 20.5499 16.4609 20.2976 16.2486 20.1162C16.0363 19.9349 15.8164 19.856 15.5965 19.856Z" fill="#B2B5BC"/>
<path d="M11.3733 23.1912C10.9184 23.1912 10.4635 23.0413 10.0844 22.7259C9.63701 22.3632 9.35647 21.8427 9.29581 21.2513C9.23516 20.6678 9.39438 20.0922 9.75075 19.6348L10.4711 18.7122C11.1914 17.7896 12.5107 17.6319 13.413 18.3573C13.8755 18.728 14.1712 19.2878 14.2242 19.895C14.2773 20.5022 14.0878 21.1094 13.7011 21.5667L12.9429 22.4578C12.5334 22.9467 11.9496 23.1912 11.3658 23.1912H11.3733ZM12.1164 19.0197C11.8131 19.0197 11.5098 19.1538 11.3051 19.4219L10.5848 20.3445C10.4104 20.5653 10.3346 20.8492 10.3649 21.133C10.3952 21.4169 10.5317 21.6693 10.7516 21.8506C11.1762 22.1976 11.7828 22.1345 12.1391 21.7166L12.8974 20.8255C13.0869 20.5968 13.1779 20.3051 13.1552 20.0054C13.1248 19.7058 12.9883 19.4377 12.7533 19.2484C12.5637 19.0986 12.3439 19.0276 12.1164 19.0276V19.0197Z" fill="#3E8CAB"/>
<path d="M11.3733 23.1912C10.9184 23.1912 10.4635 23.0413 10.0844 22.7259C9.63701 22.3632 9.35647 21.8427 9.29581 21.2513C9.23516 20.6678 9.39438 20.0922 9.75075 19.6348L10.4711 18.7122C11.1914 17.7896 12.5107 17.6319 13.413 18.3573C13.8755 18.728 14.1712 19.2878 14.2242 19.895C14.2773 20.5022 14.0878 21.1094 13.7011 21.5667L12.9429 22.4578C12.5334 22.9467 11.9496 23.1912 11.3658 23.1912H11.3733ZM12.1164 19.0197C11.8131 19.0197 11.5098 19.1538 11.3051 19.4219L10.5848 20.3445C10.4104 20.5653 10.3346 20.8492 10.3649 21.133C10.3952 21.4169 10.5317 21.6693 10.7516 21.8506C11.1762 22.1976 11.7828 22.1345 12.1391 21.7166L12.8974 20.8255C13.0869 20.5968 13.1779 20.3051 13.1552 20.0054C13.1248 19.7058 12.9883 19.4377 12.7533 19.2484C12.5637 19.0986 12.3439 19.0276 12.1164 19.0276V19.0197Z" fill="#B2B5BC"/>
<path d="M9.26548 20.8262C8.85605 20.8262 8.44661 20.6922 8.09024 20.4162C7.65047 20.0692 7.36235 19.5645 7.30169 19.0047C7.24104 18.4448 7.40026 17.8849 7.74904 17.4512L8.07508 17.0491C8.74989 16.2132 9.93272 16.0791 10.7668 16.7415C11.1914 17.0806 11.4567 17.5695 11.525 18.1136C11.5932 18.6656 11.4416 19.2018 11.108 19.6355L10.7895 20.0456C10.4028 20.5502 9.83415 20.8183 9.2579 20.8183L9.26548 20.8262ZM9.57635 17.4512C9.32614 17.4512 9.07593 17.5616 8.90154 17.7745L8.5755 18.1767C8.41628 18.3738 8.34046 18.6183 8.37078 18.8785C8.40111 19.1308 8.52243 19.3595 8.71957 19.5093C9.11384 19.8169 9.65218 19.7459 9.94788 19.3516L10.2663 18.9416C10.418 18.7444 10.4862 18.5 10.4559 18.2555C10.4256 18.0111 10.3042 17.7903 10.1147 17.6326C9.95547 17.5064 9.76591 17.4433 9.57635 17.4433V17.4512Z" fill="#3E8CAB"/>
<path d="M9.26548 20.8262C8.85605 20.8262 8.44661 20.6922 8.09024 20.4162C7.65047 20.0692 7.36235 19.5645 7.30169 19.0047C7.24104 18.4448 7.40026 17.8849 7.74904 17.4512L8.07508 17.0491C8.74989 16.2132 9.93272 16.0791 10.7668 16.7415C11.1914 17.0806 11.4567 17.5695 11.525 18.1136C11.5932 18.6656 11.4416 19.2018 11.108 19.6355L10.7895 20.0456C10.4028 20.5502 9.83415 20.8183 9.2579 20.8183L9.26548 20.8262ZM9.57635 17.4512C9.32614 17.4512 9.07593 17.5616 8.90154 17.7745L8.5755 18.1767C8.41628 18.3738 8.34046 18.6183 8.37078 18.8785C8.40111 19.1308 8.52243 19.3595 8.71957 19.5093C9.11384 19.8169 9.65218 19.7459 9.94788 19.3516L10.2663 18.9416C10.418 18.7444 10.4862 18.5 10.4559 18.2555C10.4256 18.0111 10.3042 17.7903 10.1147 17.6326C9.95547 17.5064 9.76591 17.4433 9.57635 17.4433V17.4512Z" fill="#B2B5BC"/>
<path d="M8.48484 17.978C8.34078 17.978 8.2043 17.9228 8.09815 17.8045L5.25482 14.7292C5.07285 14.532 5.0501 14.2324 5.20174 14.0195L10.3273 6.48095C10.4259 6.33113 10.5927 6.24438 10.7671 6.24438H15.7486C16.0443 6.24438 16.2869 6.49672 16.2869 6.80425C16.2869 7.11179 16.0443 7.36413 15.7486 7.36413H11.04L6.33907 14.2797L8.87911 17.016C9.08383 17.2368 9.07625 17.5916 8.86395 17.8124C8.7578 17.9149 8.62132 17.9701 8.49242 17.9701L8.48484 17.978Z" fill="#3E8CAB"/>
<path d="M8.48484 17.978C8.34078 17.978 8.2043 17.9228 8.09815 17.8045L5.25482 14.7292C5.07285 14.532 5.0501 14.2324 5.20174 14.0195L10.3273 6.48095C10.4259 6.33113 10.5927 6.24438 10.7671 6.24438H15.7486C16.0443 6.24438 16.2869 6.49672 16.2869 6.80425C16.2869 7.11179 16.0443 7.36413 15.7486 7.36413H11.04L6.33907 14.2797L8.87911 17.016C9.08383 17.2368 9.07625 17.5916 8.86395 17.8124C8.7578 17.9149 8.62132 17.9701 8.49242 17.9701L8.48484 17.978Z" fill="#B2B5BC"/>
<path d="M30.5413 17.4664C30.4048 17.4664 30.2683 17.4112 30.1622 17.3087C29.9499 17.0879 29.9499 16.7331 30.1622 16.5123L32.4217 14.1151C32.634 13.8943 32.9752 13.8864 33.1875 14.1151C33.3998 14.3359 33.3998 14.6907 33.1875 14.9115L30.928 17.3087C30.8218 17.4191 30.6853 17.4743 30.5413 17.4743V17.4664Z" fill="#3E8CAB"/>
<path d="M30.5413 17.4664C30.4048 17.4664 30.2683 17.4112 30.1622 17.3087C29.9499 17.0879 29.9499 16.7331 30.1622 16.5123L32.4217 14.1151C32.634 13.8943 32.9752 13.8864 33.1875 14.1151C33.3998 14.3359 33.3998 14.6907 33.1875 14.9115L30.928 17.3087C30.8218 17.4191 30.6853 17.4743 30.5413 17.4743V17.4664Z" fill="#B2B5BC"/>
<path d="M34.3091 16.3701C33.7329 16.3701 33.1718 16.0783 32.823 15.55C31.5189 13.5471 28.7438 9.19429 27.2122 6.78133C26.6966 5.96912 26.871 4.86515 27.6216 4.26585L32.1785 0.654296C32.4136 0.465044 32.7548 0.512357 32.9367 0.756807C33.1187 1.00126 33.0732 1.3561 32.8382 1.54536L28.2888 5.15691C27.9931 5.39348 27.9173 5.83507 28.122 6.15837C29.6612 8.57133 32.4287 12.9241 33.7329 14.9192C33.9528 15.2503 34.3774 15.345 34.7034 15.1321L38.4111 12.7112C38.6613 12.5456 38.9949 12.6245 39.1541 12.8847C39.3134 13.1449 39.2376 13.4919 38.9873 13.6575L35.2796 16.0783C34.9839 16.2755 34.6503 16.3701 34.3243 16.3701H34.3091Z" fill="#3E8CAB"/>
<path d="M34.3091 16.3701C33.7329 16.3701 33.1718 16.0783 32.823 15.55C31.5189 13.5471 28.7438 9.19429 27.2122 6.78133C26.6966 5.96912 26.871 4.86515 27.6216 4.26585L32.1785 0.654296C32.4136 0.465044 32.7548 0.512357 32.9367 0.756807C33.1187 1.00126 33.0732 1.3561 32.8382 1.54536L28.2888 5.15691C27.9931 5.39348 27.9173 5.83507 28.122 6.15837C29.6612 8.57133 32.4287 12.9241 33.7329 14.9192C33.9528 15.2503 34.3774 15.345 34.7034 15.1321L38.4111 12.7112C38.6613 12.5456 38.9949 12.6245 39.1541 12.8847C39.3134 13.1449 39.2376 13.4919 38.9873 13.6575L35.2796 16.0783C34.9839 16.2755 34.6503 16.3701 34.3243 16.3701H34.3091Z" fill="#B2B5BC"/>
<path d="M4.63282 15.4477C4.32953 15.4477 4.02624 15.3689 3.7457 15.2033L0.27305 13.1609C0.0152546 13.0111 -0.0757319 12.6642 0.06833 12.3961C0.212392 12.1279 0.546009 12.0333 0.803804 12.1831L4.27646 14.2255C4.59491 14.4147 5.00435 14.3201 5.21665 14.0047L10.418 6.26902C10.6303 5.9536 10.5773 5.5199 10.2891 5.27545L5.30005 0.993627C5.07259 0.79649 5.03468 0.441643 5.22423 0.205078C5.41379 -0.0314872 5.75499 -0.0709146 5.98245 0.126223L10.9791 4.40805C11.6994 5.03889 11.8359 6.11131 11.2976 6.90775L6.0886 14.6434C5.73982 15.1639 5.18632 15.4399 4.61766 15.4399L4.63282 15.4477Z" fill="#3E8CAB"/>
<path d="M4.63282 15.4477C4.32953 15.4477 4.02624 15.3689 3.7457 15.2033L0.27305 13.1609C0.0152546 13.0111 -0.0757319 12.6642 0.06833 12.3961C0.212392 12.1279 0.546009 12.0333 0.803804 12.1831L4.27646 14.2255C4.59491 14.4147 5.00435 14.3201 5.21665 14.0047L10.418 6.26902C10.6303 5.9536 10.5773 5.5199 10.2891 5.27545L5.30005 0.993627C5.07259 0.79649 5.03468 0.441643 5.22423 0.205078C5.41379 -0.0314872 5.75499 -0.0709146 5.98245 0.126223L10.9791 4.40805C11.6994 5.03889 11.8359 6.11131 11.2976 6.90775L6.0886 14.6434C5.73982 15.1639 5.18632 15.4399 4.61766 15.4399L4.63282 15.4477Z" fill="#B2B5BC"/>
<path d="M2.94932 12.6722C2.84317 12.6722 2.73702 12.6406 2.64603 12.5776C2.4034 12.4041 2.33516 12.0492 2.50955 11.7969L5.20124 7.72009C5.36804 7.46775 5.70924 7.39678 5.95187 7.57815C6.1945 7.75163 6.26274 8.10648 6.08835 8.35881L3.39667 12.4356C3.29052 12.5933 3.12371 12.6801 2.94932 12.6801V12.6722Z" fill="#3E8CAB"/>
<path d="M2.94932 12.6722C2.84317 12.6722 2.73702 12.6406 2.64603 12.5776C2.4034 12.4041 2.33516 12.0492 2.50955 11.7969L5.20124 7.72009C5.36804 7.46775 5.70924 7.39678 5.95187 7.57815C6.1945 7.75163 6.26274 8.10648 6.08835 8.35881L3.39667 12.4356C3.29052 12.5933 3.12371 12.6801 2.94932 12.6801V12.6722Z" fill="#B2B5BC"/>
<path d="M35.3486 13.2477C35.1666 13.2477 34.9922 13.1531 34.8936 12.9875L32.3536 8.75299C32.1944 8.49277 32.2702 8.14581 32.528 7.98021C32.7782 7.81461 33.1118 7.89347 33.271 8.16158L35.8111 12.3961C35.9703 12.6563 35.8945 13.0033 35.6367 13.1689C35.5457 13.2241 35.4471 13.2556 35.3486 13.2556V13.2477Z" fill="#3E8CAB"/>
<path d="M35.3486 13.2477C35.1666 13.2477 34.9922 13.1531 34.8936 12.9875L32.3536 8.75299C32.1944 8.49277 32.2702 8.14581 32.528 7.98021C32.7782 7.81461 33.1118 7.89347 33.271 8.16158L35.8111 12.3961C35.9703 12.6563 35.8945 13.0033 35.6367 13.1689C35.5457 13.2241 35.4471 13.2556 35.3486 13.2556V13.2477Z" fill="#B2B5BC"/>
</svg>
