<svg width="34" height="20" viewBox="0 0 34 20" fill="none" xmlns="http://www.w3.org/2000/svg">
<path d="M1.6665 16.667C0.746119 16.667 0 17.4131 0 18.3335C0 19.2539 0.746118 20 1.6665 20H31.6665C32.5869 20 33.333 19.2539 33.333 18.3335C33.333 17.4131 32.5869 16.667 31.6665 16.667H1.6665ZM1.66648 8.33395C0.746099 8.33398 0 9.0801 0 10.0005C0 10.9209 0.746129 11.667 1.66653 11.667H31.666C32.5867 11.667 33.333 10.9207 33.333 10C33.333 9.07936 32.5866 8.33302 31.666 8.33305L1.66648 8.33395ZM1.6665 0C0.746119 0 0 0.746118 0 1.6665C0 2.58688 0.746118 3.333 1.6665 3.333H31.6665C32.5869 3.333 33.333 2.58688 33.333 1.6665C33.333 0.746118 32.5869 0 31.6665 0H1.6665Z" fill="#3E8CAB"/>
<path d="M1.6665 16.667C0.746119 16.667 0 17.4131 0 18.3335C0 19.2539 0.746118 20 1.6665 20H31.6665C32.5869 20 33.333 19.2539 33.333 18.3335C33.333 17.4131 32.5869 16.667 31.6665 16.667H1.6665ZM1.66648 8.33395C0.746099 8.33398 0 9.0801 0 10.0005C0 10.9209 0.746129 11.667 1.66653 11.667H31.666C32.5867 11.667 33.333 10.9207 33.333 10C33.333 9.07936 32.5866 8.33302 31.666 8.33305L1.66648 8.33395ZM1.6665 0C0.746119 0 0 0.746118 0 1.6665C0 2.58688 0.746118 3.333 1.6665 3.333H31.6665C32.5869 3.333 33.333 2.58688 33.333 1.6665C33.333 0.746118 32.5869 0 31.6665 0H1.6665Z" fill="#B2B5BC"/>
</svg>
