<svg width="126" height="22" viewBox="0 0 126 22" fill="none" xmlns="http://www.w3.org/2000/svg">
    <defs>
        <linearGradient id="paint0_linear_27_330" x1="37.6539" y1="4.6539" x2="5.077" y2="22.0001" gradientUnits="userSpaceOnUse">
            <stop stop-color="#E39845"/>
            <stop offset="1" stop-color="#E28B2A"/>
        </linearGradient>
    </defs>
<path d="M1.48397 0C1.07454 0 0.730145 0.144659 0.447831 0.435454C0.164039 0.724772 0.0236206 1.07461 0.0236206 1.48202C0.0236206 1.88943 0.165517 2.23926 0.447831 2.52858C0.730145 2.81938 1.07602 2.96404 1.48397 2.96404C1.89192 2.96404 2.2171 2.81938 2.50828 2.52858C2.79799 2.23926 2.94432 1.88943 2.94432 1.48202C2.94432 1.07461 2.79946 0.726248 2.50828 0.435454C2.2171 0.144659 1.87566 0 1.48397 0Z" fill="#3E8CAB"/>
<path d="M1.46023 4.39722C1.06705 4.39722 0.722661 4.53892 0.424088 4.82086C0.141774 5.1028 -0.00012207 5.44821 -0.00012207 5.85562V20.4824C-0.00012207 20.8898 0.141774 21.2353 0.424088 21.5172C0.722661 21.8154 1.06705 21.9645 1.46023 21.9645C1.8534 21.9645 2.21405 21.8154 2.49636 21.5172C2.77868 21.2353 2.92057 20.8898 2.92057 20.4824V5.85562C2.92057 5.44821 2.77868 5.1028 2.49636 4.82086C2.21405 4.53892 1.86818 4.39722 1.46023 4.39722Z" fill="#3E8CAB"/>
<path d="M47.8204 4.39747C45.4023 4.39747 43.33 5.25214 41.6036 6.96001C39.892 8.66935 39.0377 10.7389 39.0377 13.1685C39.0377 15.5982 39.8935 17.6677 41.6036 19.3771C43.33 21.1012 45.457 21.9632 47.9845 21.9632C49.2084 21.9632 50.3554 21.7905 51.4225 21.4451C52.4897 21.0849 53.4712 20.5831 54.3654 19.941C54.664 19.69 54.8369 19.3608 54.8842 18.9534C54.9152 18.546 54.797 18.1859 54.5309 17.8714C54.2797 17.5733 53.9574 17.4006 53.5658 17.3533C53.1578 17.3223 52.7957 17.4316 52.4823 17.6825C51.8379 18.1209 51.155 18.4501 50.4337 18.67C49.6961 18.9047 48.8802 19.0228 47.9845 19.0228C46.2581 19.0228 44.8214 18.4501 43.6759 17.3061C42.9221 16.5533 42.4121 15.6676 42.1446 14.6491H55.1665C55.5582 14.6491 55.8967 14.5 56.179 14.2018C56.4776 13.9199 56.6269 13.5745 56.6269 13.1671C56.6269 10.7374 55.7711 8.66787 54.0609 6.95853C52.3345 5.25067 50.2534 4.396 47.8204 4.396V4.39747ZM42.1461 11.7101C42.4136 10.6754 42.9235 9.78234 43.6774 9.02952C44.8229 7.88553 46.2049 7.3128 47.8219 7.3128C49.4389 7.3128 50.8357 7.88553 51.9665 9.02952C52.7351 9.78234 53.2539 10.6754 53.5199 11.7101H42.1461Z" fill="#3E8CAB"/>
<path d="M70.3553 12.3697C69.4138 12.0243 67.8116 11.8368 65.5516 11.8058C63.7616 11.8058 62.4831 11.642 61.713 11.3113C60.9754 11.0132 60.5985 10.464 60.5823 9.66547C60.5823 9.00712 60.9976 8.45063 61.8298 7.99598C62.8023 7.47934 64.0277 7.21955 65.5028 7.21955H65.5265V7.19593C66.5774 7.21217 67.5514 7.37601 68.4457 7.68895C69.2926 8.00336 70.0154 8.44177 70.6111 9.00564C70.8934 9.27282 71.2319 9.40567 71.6235 9.40567C72.0005 9.38943 72.3212 9.24182 72.5887 8.95841C72.8563 8.67647 72.9893 8.3473 72.9893 7.97089C72.973 7.57972 72.8252 7.25055 72.5414 6.98337C71.662 6.13608 70.6111 5.49397 69.3857 5.05556C68.1929 4.63192 66.9055 4.41345 65.5235 4.39722C63.5769 4.39722 61.8978 4.77363 60.4847 5.52644C58.6947 6.51396 57.7916 7.89413 57.7769 9.66547C57.7769 11.7187 58.7346 13.1388 60.6502 13.9211C61.7485 14.361 63.3817 14.5868 65.5486 14.6031C67.4642 14.6193 68.7354 14.7522 69.3636 15.0031C70.0538 15.254 70.3997 15.8179 70.3997 16.6962C70.3997 17.3073 70.0538 17.8254 69.3636 18.2476C68.4058 18.8439 67.1509 19.1495 65.5959 19.1643C64.5287 19.1643 63.531 19.0004 62.6058 18.6698C61.679 18.3406 60.8794 17.8623 60.2039 17.235C59.9363 16.984 59.6067 16.8586 59.215 16.8586C58.8219 16.8896 58.5011 17.046 58.2498 17.3295C57.9823 17.6114 57.8567 17.9406 57.8729 18.317C57.8892 18.7096 58.037 19.0388 58.3208 19.3045C59.2623 20.1665 60.3694 20.8323 61.6406 21.3032C62.8807 21.743 64.1991 21.9615 65.5959 21.9615C67.6992 21.9305 69.4493 21.4832 70.8476 20.6212C72.4321 19.6499 73.2258 18.3406 73.2258 16.6947C73.2258 14.5307 72.268 13.0886 70.3524 12.3682L70.3553 12.3697Z" fill="#3E8CAB"/>
<path d="M88.5107 16.3908C88.1648 16.1871 87.7968 16.1325 87.4036 16.2269C87.0104 16.3214 86.7133 16.5325 86.5094 16.8617C86.0851 17.5362 85.5205 18.0691 84.814 18.4603C84.1385 18.8529 83.4009 19.0478 82.5998 19.0478C81.3435 19.0478 80.26 18.5931 79.351 17.6838C78.4567 16.7908 78.0089 15.7162 78.0089 14.4615V7.31415H87.1449C87.5529 7.31415 87.8988 7.17244 88.1811 6.8905C88.4634 6.60856 88.6053 6.26315 88.6053 5.85574C88.6053 5.44834 88.4634 5.10293 88.1811 4.82099C87.8988 4.52281 87.5529 4.37373 87.1449 4.37373H78.0089V1.4584C78.0089 1.06723 77.867 0.72182 77.5847 0.423645C77.3024 0.141707 76.9565 0 76.5485 0C76.1406 0 75.811 0.141707 75.5124 0.423645C75.2301 0.72182 75.0882 1.06723 75.0882 1.4584V14.4615C75.0882 16.531 75.8258 18.295 77.3024 19.7519C78.7627 21.225 80.5275 21.9631 82.5998 21.9631C83.8872 21.9631 85.1037 21.6428 86.2492 20.9992C87.3947 20.3718 88.3052 19.5098 88.9807 18.413C89.2009 18.0676 89.263 17.7001 89.1684 17.3074C89.0738 16.9163 88.8536 16.6092 88.5092 16.3908H88.5107Z" fill="#3E8CAB"/>
<path d="M98.8704 4.39722C96.4523 4.39722 94.38 5.25189 92.6536 6.95975C90.942 8.66909 90.0876 10.7386 90.0876 13.1683C90.0876 15.598 90.9435 17.6675 92.6536 19.3768C94.38 21.1009 96.4523 21.963 98.8704 21.963C101.289 21.963 103.383 21.1009 105.111 19.3768C106.823 17.6675 107.677 15.598 107.677 13.1683C107.677 10.7386 106.821 8.66909 105.111 6.95975C103.384 5.25189 101.303 4.39722 98.8704 4.39722ZM103.015 17.3073C101.884 18.4513 100.504 19.024 98.8704 19.024C97.2371 19.024 95.8714 18.4513 94.7259 17.3073C93.5804 16.1633 93.0069 14.7832 93.0069 13.1683C93.0069 11.5534 93.5804 10.1747 94.7259 9.02926C95.8714 7.88527 97.2534 7.31254 98.8704 7.31254C100.487 7.31254 101.884 7.88527 103.015 9.02926C104.177 10.1733 104.758 11.5534 104.758 13.1683C104.758 14.7832 104.177 16.1633 103.015 17.3073Z" fill="#3E8CAB"/>
<path d="M122.724 6.67781C121.201 5.15742 119.364 4.39722 117.214 4.39722C115.063 4.39722 113.226 5.15742 111.703 6.67781C110.181 8.19821 109.42 10.033 109.42 12.1808V20.5046C109.42 20.8972 109.562 21.2338 109.844 21.5157C110.142 21.8139 110.487 21.963 110.88 21.963C111.273 21.963 111.641 21.8139 111.94 21.5157C112.206 21.2338 112.34 20.8972 112.34 20.5046V12.1808C112.34 10.8331 112.819 9.68761 113.777 8.74732C114.719 7.7908 115.864 7.31254 117.215 7.31254C118.566 7.31254 119.712 7.7908 120.653 8.74732C121.611 9.68761 122.09 10.8331 122.09 12.1808C122.09 12.5719 122.223 12.9173 122.49 13.2155C122.773 13.4975 123.126 13.6392 123.55 13.6392C123.942 13.6392 124.28 13.4989 124.563 13.2155C124.861 12.9173 125.01 12.5734 125.01 12.1808C125.01 10.033 124.249 8.19821 122.727 6.67781H122.724Z" fill="#3E8CAB"/>
<path d="M36.9907 6.12889C36.9138 5.00852 35.7905 4.26751 34.7277 4.63507L28.4252 6.81381C27.5339 7.12232 27.0609 8.0936 27.3698 8.9837C27.6788 9.8738 28.6513 10.3462 29.5426 10.0376L30.9187 9.56233L24.6354 17.9098L16.7779 7.86628C16.3182 7.27879 15.6309 6.96142 14.883 6.96142C14.138 6.97323 13.4566 7.32307 13.0162 7.92385L5.2976 18.4338C4.74036 19.194 4.90443 20.2612 5.66417 20.8177C6.42538 21.3742 7.49404 21.2104 8.05127 20.4516L14.9451 11.065L22.7937 21.0952C23.2445 21.6709 23.9215 22.0001 24.6531 22.0001H24.6768C25.4055 22.0001 26.0913 21.6576 26.5288 21.0775L33.9237 11.2525L34.0375 12.8984C34.1025 13.8386 34.9184 14.5472 35.8585 14.4822C36.8 14.4173 37.5095 13.6025 37.4445 12.6637L36.9922 6.13185L36.9907 6.12889Z" fill="url(#paint0_linear_27_330)"/>
</svg>
